<?xml version="1.0" standalone="no"?>
<!DOCTYPE svg PUBLIC "-//W3C//DTD SVG 20010904//EN"
 "http://www.w3.org/TR/2001/REC-SVG-20010904/DTD/svg10.dtd">
<svg version="1.0" xmlns="http://www.w3.org/2000/svg"
 width="360.000000pt" height="270.000000pt" viewBox="0 0 360.000000 270.000000"
 preserveAspectRatio="xMidYMid meet">

<g transform="translate(0.000000,270.000000) scale(0.100000,-0.100000)"
fill="#000000" stroke="none">
<path d="M1900 1702 c-81 -8 -110 -14 -105 -22 3 -5 20 -4 38 1 101 29 208 -5
242 -78 11 -23 22 -42 26 -43 9 0 -7 110 -18 121 -11 11 -139 26 -183 21z"/>
<path d="M1469 1680 c18 -4 37 -14 42 -22 5 -7 9 -115 9 -239 0 -246 1 -241
-57 -259 -19 -6 7 -8 82 -8 76 0 100 3 77 8 -19 4 -39 13 -45 19 -9 9 -12 84
-12 254 l0 242 40 3 c98 8 165 -44 165 -129 0 -61 -21 -104 -60 -124 -17 -9
-30 -23 -30 -32 0 -32 110 -181 193 -260 95 -91 166 -133 226 -133 55 0 59 15
8 30 -103 30 -248 158 -343 303 -45 67 -46 71 -28 84 11 8 26 20 35 26 53 41
68 141 27 192 -36 46 -73 55 -225 54 -92 -1 -127 -4 -104 -9z"/>
<path d="M1667 1602 c-50 -51 -69 -102 -69 -185 0 -122 69 -217 184 -256 31
-10 29 -8 -24 42 -79 71 -103 127 -102 232 1 79 13 121 50 172 27 37 -1 34
-39 -5z"/>
<path d="M1999 1380 c57 -9 71 -29 71 -106 0 -78 -18 -103 -78 -111 -26 -3
-40 -9 -34 -15 5 -5 38 -2 80 7 l71 16 3 97 c3 92 4 97 28 109 22 11 11 13
-80 12 -79 -1 -94 -3 -61 -9z"/>
</g>
</svg>
